<svg width="1309" height="592" viewBox="0 0 1309 592" fill="none" xmlns="http://www.w3.org/2000/svg">
<path d="M271.635 579V445.34H0.214934V392.86L269.175 13.2H336.415V387.94H409.395V445.34H336.415V579H271.635ZM72.3749 387.94H271.635V106.68L72.3749 387.94ZM658.739 591.3C616.099 591.3 579.199 579.547 548.039 556.04C517.426 531.987 493.646 497.82 476.699 453.54C460.299 409.26 452.099 356.78 452.099 296.1C452.099 235.42 460.572 182.94 477.519 138.66C494.466 94.38 518.519 60.4866 549.679 36.98C580.839 12.9266 617.739 0.899965 660.379 0.899965C703.019 0.899965 739.646 12.9266 770.259 36.98C801.419 60.4866 825.199 94.38 841.599 138.66C858.546 182.94 867.019 235.42 867.019 296.1C867.019 356.78 858.546 409.26 841.599 453.54C824.652 497.82 800.599 531.987 769.439 556.04C738.279 579.547 701.379 591.3 658.739 591.3ZM659.559 529.8C689.079 529.8 713.952 520.78 734.179 502.74C754.952 484.153 770.806 457.367 781.739 422.38C792.672 387.393 798.139 345.3 798.139 296.1C798.139 246.353 792.672 204.26 781.739 169.82C770.806 134.833 754.952 108.32 734.179 90.28C713.952 71.6933 689.079 62.4 659.559 62.4C630.039 62.4 604.892 71.6933 584.119 90.28C563.892 108.32 548.312 134.833 537.379 169.82C526.446 204.26 520.979 246.353 520.979 296.1C520.979 345.3 526.446 387.393 537.379 422.38C548.312 457.367 563.892 484.153 584.119 502.74C604.892 520.78 630.039 529.8 659.559 529.8ZM1170.86 579V445.34H899.441V392.86L1168.4 13.2H1235.64V387.94H1308.62V445.34H1235.64V579H1170.86ZM971.601 387.94H1170.86V106.68L971.601 387.94Z" fill="black"/>
</svg>
