<?xml version="1.0" encoding="UTF-8"?>
<svg width="13px" height="13px" viewBox="0 0 13 13" version="1.1" xmlns="http://www.w3.org/2000/svg" xmlns:xlink="http://www.w3.org/1999/xlink">
    <title>Path</title>
    <g id="Page-1" stroke="none" stroke-width="1" fill="none" fill-rule="evenodd">
        <path d="M12.679,9.39355 L12.679,1.61621 C12.679,0.950195 12.2493,0.499023 11.5618,0.499023 L3.78448,0.509766 C3.12921,0.509766 2.68878,1.00391 2.68878,1.5625 C2.68878,2.13184 3.18292,2.59375 3.75226,2.59375 L5.99738,2.59375 L9.41339,2.44336 L7.92023,3.74316 L1.05597,10.6182 C0.830383,10.8438 0.712219,11.1123 0.712219,11.3809 C0.712219,11.9395 1.22784,12.4658 1.79718,12.4658 C2.06573,12.4658 2.33429,12.3584 2.57062,12.1328 L9.43488,5.25781 L10.7454,3.76465 L10.595,7.14844 L10.595,9.42578 C10.595,10.0059 11.0569,10.5 11.6263,10.5 C12.1849,10.5 12.679,10.0166 12.679,9.39355 Z" id="Path" fill="#000000" fill-rule="nonzero"></path>
    </g>
</svg>