<?xml version="1.0" encoding="UTF-8"?>
<svg width="17px" height="14px" viewBox="0 0 17 14" version="1.1" xmlns="http://www.w3.org/2000/svg" xmlns:xlink="http://www.w3.org/1999/xlink">
    <title>Path</title>
    <g id="Page-1" stroke="none" stroke-width="1" fill="none" fill-rule="evenodd">
        <path d="M0.49707,7.09375 C0.49707,7.38379 0.625977,7.68457 0.84082,7.88867 L6.35156,13.3779 C6.57715,13.6035 6.83496,13.7109 7.10352,13.7109 C7.71582,13.7109 8.15625,13.2812 8.15625,12.6904 C8.15625,12.3896 8.03809,12.1211 7.83398,11.9277 L6.24414,10.3057 L3.74121,8.03906 L5.70703,8.16797 L15.418,8.16797 C16.0625,8.16797 16.5029,7.72754 16.5029,7.09375 C16.5029,6.45996 16.0625,6.03027 15.418,6.03027 L5.70703,6.03027 L3.74121,6.14844 L6.24414,3.88184 L7.83398,2.25977 C8.03809,2.06641 8.15625,1.80859 8.15625,1.49707 C8.15625,0.916992 7.71582,0.476562 7.10352,0.476562 C6.83496,0.476562 6.57715,0.583984 6.34082,0.820312 L0.84082,6.29883 C0.625977,6.51367 0.49707,6.80371 0.49707,7.09375 Z" id="Path" fill="#000000" fill-rule="nonzero"></path>
    </g>
</svg>