<svg height="17" viewBox="0 0 14 17" width="14" xmlns="http://www.w3.org/2000/svg"><path d="m6.60332 16.29c.63379 0 1.06347-.4404 1.06347-1.0957v-9.93649l-.07519-1.80469 2.2236 2.50293 1.6221 1.60059c.1934.19336.4619.31152.7627.31152.5801 0 1.0205-.44043 1.0205-1.03125 0-.29003-.1074-.54785-.333-.77343l-5.48926-5.510746c-.21484-.214843-.50488-.34375-.79492-.34375s-.58008.128907-.79492.34375l-5.48926 5.510746c-.22559.22558-.33301.4834-.33301.77343 0 .59082.44043 1.03125 1.02051 1.03125.30078 0 .56933-.11816.76269-.31152l1.62207-1.60059 2.21289-2.51367-.07519 1.81543v9.93649c0 .6553.44043 1.0957 1.07422 1.0957z"/></svg>