<svg width="19" height="19" viewBox="0 0 19 19" fill="none" xmlns="http://www.w3.org/2000/svg">
<path d="M9.66113 18.751C14.6445 18.751 18.7578 14.6377 18.7578 9.66309C18.7578 4.67969 14.6357 0.566406 9.65234 0.566406C4.67773 0.566406 0.573242 4.67969 0.573242 9.66309C0.573242 14.6377 4.68652 18.751 9.66113 18.751ZM9.66113 16.9316C5.62695 16.9316 2.40137 13.6885 2.40137 9.66309C2.40137 5.62891 5.62695 2.38574 9.65234 2.38574C13.6865 2.38574 16.9297 5.62891 16.9385 9.66309C16.9473 13.6885 13.6953 16.9316 9.66113 16.9316ZM8.55371 14.1016C8.87891 14.1016 9.15137 13.9434 9.34473 13.6445L13.6338 6.95605C13.7568 6.77148 13.8535 6.56055 13.8535 6.3584C13.8535 5.91016 13.458 5.62012 13.0449 5.62012C12.7725 5.62012 12.5352 5.76953 12.3506 6.06836L8.52734 12.168L6.5498 9.67188C6.34766 9.4082 6.12793 9.30273 5.86426 9.30273C5.4248 9.30273 5.08203 9.6543 5.08203 10.0938C5.08203 10.3047 5.16113 10.5068 5.31055 10.6914L7.73633 13.6533C7.98242 13.9521 8.2373 14.1016 8.55371 14.1016Z" fill="black"/>
</svg>
