<?xml version="1.0" encoding="UTF-8"?>
<svg width="142px" height="117px" viewBox="0 0 142 117" version="1.1" xmlns="http://www.w3.org/2000/svg" xmlns:xlink="http://www.w3.org/1999/xlink">
    <title>Group</title>
    <g id="Page-1" stroke="none" stroke-width="1" fill="none" fill-rule="evenodd">
        <g id="Group" fill="#000000" fill-rule="nonzero">
            <path d="M123.478261,0 C133.707535,0 142,8.27095015 142,18.4736842 L142,98.5263158 C142,108.72905 133.707535,117 123.478261,117 L18.5217391,117 C8.29246507,117 0,108.72905 0,98.5263158 L0,18.4736842 C0,8.27095015 8.29246507,0 18.5217391,0 L123.478261,0 Z M123.478261,12.3157895 L18.5217391,12.3157895 C15.3555353,12.3157895 12.7459993,14.6929843 12.3893625,17.7555436 L12.3478261,18.4736842 L12.3478261,98.5263158 C12.3478261,101.684305 14.7312047,104.28707 17.8017304,104.642782 L18.5217391,104.684211 L123.478261,104.684211 C126.644465,104.684211 129.254001,102.307016 129.610637,99.2444564 L129.652174,98.5263158 L129.652174,18.4736842 C129.652174,15.3156951 127.268795,12.7129296 124.19827,12.3572181 L123.478261,12.3157895 Z" id="Rectangle"></path>
            <path d="M131.883912,14 L139,23.9731519 L77.9842986,66.7572728 C73.996716,69.5533599 68.7523374,69.7345201 64.6024129,67.3032308 L63.7307521,66.7422546 L3,23.9656428 L10.1374581,14.0075091 L70.8682102,56.784121 L131.883912,14 Z" id="Path"></path>
        </g>
    </g>
</svg>