<svg width="11" height="11" viewBox="0 0 11 11" fill="none" xmlns="http://www.w3.org/2000/svg">
<path d="M5.92285 10.5283C8.68652 10.5283 10.9717 8.24316 10.9717 5.47949C10.9717 2.71094 8.68164 0.425781 5.91797 0.425781C3.1543 0.425781 0.874023 2.71094 0.874023 5.47949C0.874023 8.24316 3.15918 10.5283 5.92285 10.5283ZM5.92285 9.51758C3.68164 9.51758 1.88477 7.71582 1.88477 5.47949C1.88477 3.23828 3.67676 1.43652 5.91797 1.43652C8.15918 1.43652 9.96094 3.23828 9.96582 5.47949C9.96582 7.71582 8.16406 9.51758 5.92285 9.51758ZM3.46191 6.08984H5.91797C6.1377 6.08984 6.31348 5.91895 6.31348 5.69922V2.50586C6.31348 2.28613 6.1377 2.11523 5.91797 2.11523C5.69824 2.11523 5.52734 2.28613 5.52734 2.50586V5.30859H3.46191C3.24219 5.30859 3.07129 5.47949 3.07129 5.69922C3.07129 5.91895 3.24219 6.08984 3.46191 6.08984Z" fill="#FFFEFD"/>
</svg>
