<svg width="338" height="134" viewBox="0 0 338 134" fill="none" xmlns="http://www.w3.org/2000/svg">
<path d="M30.395 103V15.855H0.380001V0.0499945H78.1V15.855H48.085V103H30.395ZM89.1857 133.16C86.769 133.16 84.4974 132.918 82.3707 132.435C80.3407 131.952 78.359 131.178 76.4257 130.115L80.0507 116.92C81.114 117.403 82.3224 117.79 83.6757 118.08C85.029 118.467 86.334 118.66 87.5907 118.66C90.4907 118.66 93.004 117.838 95.1307 116.195C97.354 114.552 99.1907 111.893 100.641 108.22L102.961 102.275L72.0757 27.165H90.3457L110.791 83.86L129.351 27.165H147.041L114.851 112.135C112.047 119.385 108.519 124.702 104.266 128.085C100.109 131.468 95.0824 133.16 89.1857 133.16ZM152.249 103V27.165H167.474L168.199 39.635C170.133 35.3817 172.791 32.095 176.174 29.775C179.654 27.3583 183.714 26.15 188.354 26.15C189.804 26.15 191.206 26.2467 192.559 26.44C193.913 26.6333 195.121 26.9717 196.184 27.455L194.299 43.695C193.236 43.3083 192.124 43.0667 190.964 42.97C189.804 42.7767 188.644 42.68 187.484 42.68C181.684 42.68 177.141 44.6133 173.854 48.48C170.568 52.3467 168.924 57.7117 168.924 64.575V103H152.249ZM236.015 105.175C229.249 105.175 223.352 103.725 218.325 100.825C213.395 97.925 209.529 93.8167 206.725 88.5C204.019 83.0867 202.665 76.755 202.665 69.505V27.165H219.34V69.795C219.34 76.0783 220.839 81.0567 223.835 84.73C226.832 88.3067 230.94 90.095 236.16 90.095C241.38 90.095 245.489 88.3067 248.485 84.73C251.482 81.0567 252.98 76.0783 252.98 69.795V27.165H269.655V69.505C269.655 76.6583 268.254 82.9417 265.45 88.355C262.744 93.6717 258.877 97.8283 253.85 100.825C248.824 103.725 242.879 105.175 236.015 105.175ZM307.781 105.175C302.851 105.175 298.259 104.353 294.006 102.71C289.849 101.067 286.273 98.7467 283.276 95.75C280.376 92.6567 278.298 89.0317 277.041 84.875L292.121 80.96C293.378 84.2467 295.408 86.8083 298.211 88.645C301.014 90.4817 304.253 91.4 307.926 91.4C311.696 91.4 314.789 90.53 317.206 88.79C319.623 86.9533 320.831 84.6333 320.831 81.83C320.831 79.4133 319.864 77.3833 317.931 75.74C315.998 74.0967 312.856 72.8883 308.506 72.115L303.721 71.245C295.601 69.795 289.463 67.185 285.306 63.415C281.246 59.645 279.216 54.8117 279.216 48.915C279.216 44.1783 280.424 40.0217 282.841 36.445C285.258 32.8683 288.593 30.065 292.846 28.035C297.099 26.005 301.981 24.99 307.491 24.99C312.228 24.99 316.578 25.8117 320.541 27.455C324.504 29.0983 327.839 31.4183 330.546 34.415C333.253 37.4117 335.186 40.94 336.346 45L321.411 48.625C320.251 45.5317 318.414 43.115 315.901 41.375C313.484 39.5383 310.633 38.62 307.346 38.62C303.963 38.62 301.159 39.49 298.936 41.23C296.713 42.8733 295.601 45 295.601 47.61C295.601 49.8333 296.568 51.67 298.501 53.12C300.531 54.57 303.914 55.73 308.651 56.6L313.436 57.47C321.169 58.8233 327.114 61.4817 331.271 65.445C335.428 69.4083 337.506 74.3383 337.506 80.235C337.506 83.8117 336.781 87.1467 335.331 90.24C333.881 93.2367 331.803 95.895 329.096 98.215C326.486 100.438 323.344 102.13 319.671 103.29C316.094 104.547 312.131 105.175 307.781 105.175Z" fill="black"/>
</svg>
