<?xml version="1.0" encoding="UTF-8"?>
<svg width="85px" height="29px" viewBox="0 0 85 29" version="1.1" xmlns="http://www.w3.org/2000/svg" xmlns:xlink="http://www.w3.org/1999/xlink">
    <title>Group</title>
    <g id="Page-1" stroke="none" stroke-width="1" fill="none" fill-rule="evenodd">
        <g id="Artboard" transform="translate(-75.000000, -73.000000)" fill="#000000" fill-rule="nonzero">
            <g id="Group" transform="translate(75.000000, 73.000000)">
                <g id="airbnb_design_logo">
                    <path d="M25.1029644,23.4436186 C24.886326,24.9550628 23.8731499,26.2504091 22.458696,26.8240283 C21.7647462,27.1056336 21.0060342,27.2047541 20.2350002,27.1153738 C19.4971115,27.0297177 18.7707806,26.781248 18.0147431,26.3559275 C16.9680396,25.7669341 15.9084409,24.8627223 14.7161656,23.5364367 C16.6142351,21.192304 17.799442,19.0317065 18.2383545,17.1072603 C18.4391366,16.2274944 18.4816428,15.3952833 18.3645358,14.6336408 C18.2515362,13.8985449 17.992296,13.2313437 17.5939794,12.6505626 C16.7061249,11.3558847 15.1757103,10.5828786 13.4995327,10.5828786 C11.8243104,10.5828786 10.2940868,11.3556938 9.40623228,12.6501806 C9.00791565,13.2309617 8.74867551,13.8980674 8.63567585,14.6326858 C8.51847333,15.3935645 8.56078851,16.2253935 8.76118858,17.1053505 C9.19981448,19.0305606 10.3851169,21.191731 12.2837595,23.5365322 C11.0914842,24.8627223 10.0318855,25.7669341 8.98518199,26.3559275 C8.22924005,26.781248 7.50300471,27.0297177 6.76502045,27.1153738 C5.99427299,27.2047541 5.2351789,27.1056336 4.54113366,26.8240283 C3.12667976,26.2504091 2.1135036,24.9550628 1.89715176,23.4436186 C1.79131607,22.7048941 1.8729853,21.9924298 2.15419494,21.2013757 C2.25773816,20.9097438 2.37895251,20.6235548 2.52910928,20.2835085 C2.74154482,19.8024209 2.96706654,19.3135028 3.18513774,18.8407229 L3.21446225,18.7772209 C5.21091693,14.4473363 7.35389865,10.0577692 9.58399422,5.73017639 L9.67263639,5.55790918 C9.89968642,5.11673707 10.1344735,4.66057275 10.3713621,4.2197826 C10.617134,3.76285434 10.8646252,3.32110928 11.1895828,2.94028799 C11.7969918,2.2286831 12.5959175,1.8525409 13.5000103,1.8525409 C14.4038166,1.8525409 15.2025513,2.22849212 15.8098647,2.93990602 C16.1352999,3.3208228 16.3826956,3.76237688 16.6280854,4.21892318 C16.862777,4.65579816 17.0955583,5.10785633 17.3206024,5.5449223 L17.4160264,5.73036737 C19.645931,10.0573873 21.7889127,14.4470498 23.7855584,18.7776029 L23.8035161,18.8165635 C24.0255036,19.2972692 24.2548461,19.7942086 24.4708159,20.283604 C24.6212592,20.6242233 24.7426646,20.9106032 24.8460168,21.2011847 C25.1270353,21.9926208 25.2086091,22.7051806 25.1029644,23.4436186 M13.5000103,22.0916458 C11.9293819,20.097777 10.9216504,18.246191 10.5680369,16.6939718 C10.4195995,16.0424313 10.38569,15.4437932 10.4671682,14.9144821 C10.5376617,14.4566944 10.6948869,14.0473211 10.9345455,13.6977256 C11.4767146,12.90734 12.4356357,12.435515 13.5002014,12.435515 C14.564385,12.435515 15.5234015,12.907531 16.0656662,13.6981076 C16.3053248,14.0476076 16.46255,14.4571719 16.5329479,14.9149596 C16.6144261,15.4449391 16.5803257,16.0438636 16.4316972,16.6952132 C16.0777016,18.2472414 15.0701611,20.0982544 13.5000103,22.0916458 M26.1661928,19.5355213 C25.9440143,19.0322795 25.7112331,18.5278918 25.486189,18.0404062 L25.4683268,18.001732 C23.4606008,13.647115 21.3055836,9.23300656 19.0633571,4.88201823 L18.9682196,4.6972416 C18.7395457,4.25291826 18.5030392,3.79350721 18.2604195,3.34211748 C17.9771084,2.81500275 17.6632311,2.25685318 17.2191606,1.73699583 C16.2628186,0.616877022 14.9420694,0 13.5000103,0 C12.0576647,0 10.7365334,0.617163497 9.77980935,1.73795074 C9.33640747,2.25771261 9.02262566,2.8155757 8.73912356,3.34278592 C8.4944024,3.79818631 8.25569898,4.26189448 8.02492368,4.71032397 L7.93656807,4.88192274 C5.69424599,9.23329304 3.53932433,13.6474014 1.53159834,18.0016365 L1.50236935,18.0650431 C1.281146,18.5445074 1.05237662,19.0404918 0.833923344,19.5353303 C0.689497743,19.8622942 0.538003693,20.2152319 0.408001549,20.5811565 C0.0277381116,21.6510466 -0.0851660287,22.6731908 0.0627937964,23.7061256 C0.372277227,25.8675825 1.82130921,27.7200279 3.84431834,28.5406844 C4.59557982,28.8453987 5.39326381,29 6.21501873,29 C6.46776353,29 6.72480671,28.9850077 6.97879327,28.9555008 C7.95223328,28.8424385 8.9330283,28.5109865 9.89405077,27.9703119 C11.0698968,27.3087447 12.2313193,26.3390255 13.5000103,24.9534395 C14.7687014,26.3390255 15.9300284,27.3087447 17.1058744,27.9703119 C18.0670879,28.5110819 19.0478829,28.842534 20.0211319,28.9555008 C20.2752139,28.9850077 20.5321616,29 20.7850019,29 C21.6066613,29 22.4042498,28.8453987 23.1554158,28.5406844 C25.1784249,27.7202189 26.6275524,25.8677735 26.9373224,23.7061256 C27.0850912,22.6736683 26.972187,21.6514286 26.5921146,20.5809655 C26.462208,20.2159958 26.3106184,19.8627717 26.1661928,19.5355213 Z" id="Shape"></path>
                </g>
                <path d="M42.7518657,20 L42.7518657,8.14929577 L47,8.14929577 L47,6 L36,6 L36,8.14929577 L40.2481343,8.14929577 L40.2481343,20 L42.7518657,20 Z M49.2823985,24 C50.0689877,24 50.7427466,23.7606019 51.303675,23.2818057 C51.8646035,22.8030096 52.3320438,22.0506156 52.7059961,21.0246238 L52.7059961,21.0246238 L57,9 L54.6402321,9 L52.1644101,17.0232558 L49.4371373,9 L47,9 L51.1199226,19.629275 L50.8104449,20.4705882 C50.6170213,20.9904241 50.3752418,21.3666211 50.0851064,21.5991792 C49.794971,21.8317373 49.4564797,21.9480164 49.0696325,21.9480164 C48.9019987,21.9480164 48.7279175,21.9240766 48.5473888,21.876197 C48.3668601,21.8283174 48.2056738,21.7701778 48.0638298,21.7017784 L48.0638298,21.7017784 L47.5802708,23.5690834 C47.8381689,23.7195622 48.1057382,23.8290014 48.3829787,23.8974008 C48.6602192,23.9658003 48.9600258,24 49.2823985,24 Z M60.2772277,20 L60.2772277,14.5 C60.2772277,13.5176101 60.5016502,12.7496855 60.950495,12.1962264 C61.3993399,11.6427673 62.019802,11.3660377 62.8118812,11.3660377 C62.970297,11.3660377 63.1287129,11.3764151 63.2871287,11.3971698 C63.4455446,11.4179245 63.5973597,11.4559748 63.7425743,11.5113208 L63.7425743,11.5113208 L64,9.18679245 C63.8547855,9.11761006 63.689769,9.06918239 63.5049505,9.04150943 C63.320132,9.01383648 63.1287129,9 62.9306931,9 C62.2970297,9 61.7458746,9.16949686 61.2772277,9.50849057 C60.8085809,9.84748428 60.4422442,10.3213836 60.1782178,10.9301887 L60.1782178,10.9301887 L60.0792079,9.14528302 L58,9.14528302 L58,20 L60.2772277,20 Z M69.4805195,20 C70.4025974,20 71.2012987,19.7921314 71.8766234,19.3763941 C72.5519481,18.9606568 73.0746753,18.3745353 73.4448052,17.6180297 C73.8149351,16.8615242 74,15.9789343 74,14.9702602 L74,14.9702602 L74,9 L71.7597403,9 L71.7597403,15.0111524 C71.7597403,15.8971499 71.5584416,16.5957249 71.1558442,17.1068773 C70.7532468,17.6180297 70.2012987,17.8736059 69.5,17.8736059 C68.7987013,17.8736059 68.2467532,17.6180297 67.8441558,17.1068773 C67.4415584,16.5957249 67.2402597,15.8971499 67.2402597,15.0111524 L67.2402597,15.0111524 L67.2402597,9 L65,9 L65,14.9702602 C65,15.9925651 65.1850649,16.8819703 65.5551948,17.6384758 C65.9253247,18.3949814 66.4448052,18.9776952 67.1136364,19.3866171 C67.7824675,19.795539 68.5714286,20 69.4805195,20 Z M81.0671463,20 C81.6426859,20 82.1702638,19.9171187 82.6498801,19.7513562 C83.1294964,19.5855937 83.5451639,19.3468957 83.8968825,19.0352622 C84.2486011,18.7236287 84.5203837,18.3589512 84.7122302,17.9412297 C84.9040767,17.5235081 85,17.0693189 85,16.5786618 C85,15.7697408 84.72502,15.0934298 84.17506,14.5497288 C83.6250999,14.0060277 82.8385292,13.6413502 81.8153477,13.4556962 L81.8153477,13.4556962 L81.1822542,13.3363472 C80.5555556,13.2169982 80.1111111,13.0578662 79.8489209,12.8589512 C79.5867306,12.6600362 79.4556355,12.4080772 79.4556355,12.1030741 C79.4556355,11.7450271 79.6027178,11.4499699 79.8968825,11.2179024 C80.1910472,10.9858348 80.5619504,10.8698011 81.0095923,10.8698011 C81.4444444,10.8698011 81.82494,10.9924653 82.1510791,11.2377939 C82.4772182,11.4831224 82.7170264,11.8179626 82.8705036,12.2423146 L82.8705036,12.2423146 L84.8465228,11.7450271 C84.6930456,11.1880651 84.4372502,10.7040386 84.0791367,10.2929476 C83.7210232,9.88185654 83.2797762,9.56359253 82.7553957,9.33815552 C82.2310152,9.11271851 81.6554756,9 81.028777,9 C80.2997602,9 79.6538769,9.13924051 79.0911271,9.41772152 C78.5283773,9.69620253 78.0871303,10.0807715 77.7673861,10.5714286 C77.4476419,11.0620856 77.2877698,11.6323086 77.2877698,12.2820976 C77.2877698,13.0910187 77.5595524,13.7540687 78.1031175,14.2712477 C78.6466827,14.7884268 79.4556355,15.1464738 80.529976,15.3453888 L80.529976,15.3453888 L81.1630695,15.4647378 C81.7386091,15.5708258 82.1542766,15.7365883 82.4100719,15.9620253 C82.6658673,16.1874623 82.793765,16.4659433 82.793765,16.7974684 C82.793765,17.1820374 82.6338929,17.4969861 82.3141487,17.7423146 C81.9944045,17.9876432 81.5851319,18.1103074 81.0863309,18.1103074 C80.6003197,18.1103074 80.1718625,17.9843279 79.8009592,17.7323689 C79.430056,17.4804099 79.1614708,17.1289934 78.9952038,16.6781193 L78.9952038,16.6781193 L77,17.2151899 C77.166267,17.7854129 77.4444444,18.2793852 77.8345324,18.6971067 C78.2246203,19.1148282 78.6978417,19.4364075 79.2541966,19.6618445 C79.8105516,19.8872815 80.4148681,20 81.0671463,20 Z" id="Tyrus"></path>
            </g>
        </g>
    </g>
</svg>