<?xml version="1.0" encoding="UTF-8"?>
<svg width="19px" height="19px" viewBox="0 0 19 19" version="1.1" xmlns="http://www.w3.org/2000/svg" xmlns:xlink="http://www.w3.org/1999/xlink">
    <title>warn</title>
    <g id="Page-1" stroke="none" stroke-width="1" fill="none" fill-rule="evenodd">
        <g id="warn" fill="#FFFFFF" fill-rule="nonzero">
            <path d="M9.66113,18.751 C14.6445,18.751 18.7578,14.6377 18.7578,9.66309 C18.7578,4.67969 14.6357,0.566406 9.65234,0.566406 C4.67773,0.566406 0.573242,4.67969 0.573242,9.66309 C0.573242,14.6377 4.68652,18.751 9.66113,18.751 Z M9.66113,16.9316 C5.62695,16.9316 2.40137,13.6885 2.40137,9.66309 C2.40137,5.62891 5.62695,2.38574 9.65234,2.38574 C13.6865,2.38574 16.9297,5.62891 16.9385178,9.66309 C16.9473,13.6885 13.6953,16.9316 9.66113,16.9316 Z M9.66113,11.1396 C10.1357,11.1396 10.417,10.8672 10.4346,10.3574 L10.5664,6.12988 C10.5752,5.61133 10.1885,5.24219 9.65234,5.24219 C9.09863,5.24219 8.72949,5.60254 8.73828,6.12109 L8.87012,10.3662 C8.87891,10.8672 9.16016,11.1396 9.66113,11.1396 Z M9.66113,14.0576 C10.2236,14.0576 10.6895,13.6445 10.6895,13.0908 C10.6895,12.5283 10.2324,12.124 9.66113,12.124 C9.08105,12.124 8.62402,12.5371 8.62402,13.0908 C8.62402,13.6445 9.08984,14.0576 9.66113,14.0576 Z" id="Shape"></path>
        </g>
    </g>
</svg>